<?xml version="1.0" encoding="utf-8"?>
<!-- Generator: Adobe Illustrator 17.0.0, SVG Export Plug-In . SVG Version: 6.00 Build 0)  -->
<!DOCTYPE svg PUBLIC "-//W3C//DTD SVG 1.1//EN" "http://www.w3.org/Graphics/SVG/1.1/DTD/svg11.dtd">
<svg version="1.1" id="Layer_1" xmlns="http://www.w3.org/2000/svg" xmlns:xlink="http://www.w3.org/1999/xlink" x="0px" y="0px"
	 width="192.507px" height="73.47px" viewBox="0 0 192.507 73.47" enable-background="new 0 0 192.507 73.47" xml:space="preserve">
<g>
	<defs>
		<rect id="SVGID_1_" y="0" width="192.507" height="73.47"/>
	</defs>
	<clipPath id="SVGID_2_">
		<use xlink:href="#SVGID_1_"  overflow="visible"/>
	</clipPath>
	<path clip-path="url(#SVGID_2_)" fill="#57BF99" d="M40.462,23.933c4.022,2.225,7.161,5.314,9.417,9.271s3.384,8.484,3.384,13.585
		s-1.128,9.647-3.384,13.635c-2.256,3.99-5.395,7.096-9.417,9.318c-4.021,2.225-8.617,3.336-13.781,3.336
		c-5.233,0-9.859-1.111-13.88-3.336C8.779,67.52,5.64,64.43,3.384,60.473C1.128,56.518,0,51.955,0,46.789
		c0-5.101,1.128-9.628,3.384-13.585s5.395-7.046,9.417-9.271c4.021-2.222,8.647-3.335,13.88-3.335
		C31.845,20.598,36.441,21.711,40.462,23.933 M17.607,30.898c-2.648,1.57-4.708,3.744-6.18,6.523
		c-1.471,2.781-2.207,5.934-2.207,9.467c0,3.596,0.736,6.801,2.207,9.612c1.472,2.813,3.532,4.988,6.18,6.523
		c2.648,1.537,5.672,2.305,9.074,2.305c3.334,0,6.326-0.768,8.975-2.305c2.648-1.535,4.708-3.71,6.18-6.523
		c1.471-2.811,2.207-6.016,2.207-9.612c0-3.533-0.736-6.686-2.207-9.467c-1.472-2.779-3.532-4.953-6.18-6.523
		c-2.649-1.57-5.641-2.354-8.975-2.354C23.279,28.544,20.255,29.328,17.607,30.898"/>
	<path clip-path="url(#SVGID_2_)" fill="#57BF99" d="M68.564,23.59c3.139-1.928,6.866-2.926,11.183-2.992v8.829
		c-5.298-0.196-9.582,1.177-12.851,4.12c-3.27,2.942-5.135,6.9-5.591,11.869v27.368h-9.123V20.893h9.123v11.183
		C63.004,28.348,65.425,25.521,68.564,23.59"/>
	<path clip-path="url(#SVGID_2_)" fill="#0F354C" d="M135.5,0v72.784h-17.461v-6.867c-1.83,2.486-4.071,4.366-6.719,5.64
		c-2.648,1.276-5.641,1.914-8.975,1.914c-4.905,0-9.221-1.145-12.948-3.434c-3.727-2.289-6.621-5.509-8.681-9.662
		c-2.061-4.152-3.09-8.942-3.09-14.371c0-5.361,1.013-10.07,3.041-14.125c2.026-4.054,4.871-7.193,8.533-9.417
		c3.662-2.222,7.912-3.334,12.753-3.334c3.399,0,6.456,0.653,9.171,1.961c2.713,1.309,5.018,3.173,6.915,5.592V0H135.5z
		 M114.901,56.059c2.091-2.452,3.138-5.64,3.138-9.563c0-3.989-1.047-7.194-3.138-9.614c-2.094-2.419-4.84-3.63-8.24-3.63
		c-3.402,0-6.165,1.227-8.288,3.679c-2.127,2.452-3.188,5.641-3.188,9.565c0,3.923,1.061,7.111,3.188,9.563
		c2.123,2.452,4.886,3.679,8.288,3.679C110.061,59.738,112.807,58.511,114.901,56.059"/>
	<path clip-path="url(#SVGID_2_)" fill="#0F354C" d="M178.676,22.511c4.38,2.257,7.782,5.43,10.202,9.516
		c2.419,4.087,3.629,8.813,3.629,14.173c0,5.43-1.21,10.188-3.629,14.273c-2.42,4.088-5.822,7.26-10.202,9.516
		c-4.382,2.255-9.45,3.383-15.204,3.383c-5.756,0-10.823-1.128-15.205-3.383c-4.381-2.256-7.765-5.428-10.152-9.516
		c-2.388-4.085-3.581-8.843-3.581-14.273c0-5.36,1.193-10.086,3.581-14.173c2.387-4.086,5.771-7.259,10.152-9.516
		c4.382-2.256,9.449-3.383,15.205-3.383C169.226,19.128,174.294,20.255,178.676,22.511 M155.232,36.882
		c-2.094,2.42-3.138,5.592-3.138,9.515c0,3.99,1.044,7.194,3.138,9.613c2.092,2.42,4.839,3.629,8.24,3.629
		c3.466,0,6.243-1.209,8.338-3.629c2.091-2.419,3.138-5.623,3.138-9.613c0-3.923-1.063-7.095-3.188-9.515
		c-2.126-2.419-4.889-3.629-8.288-3.629C160.071,33.253,157.324,34.463,155.232,36.882"/>
	<rect x="143.628" y="4.655" clip-path="url(#SVGID_2_)" fill="#0F354C" width="39.267" height="9.2"/>
</g>
</svg>
